<svg xmlns="http://www.w3.org/2000/svg" width="286.3" height="233.561" viewBox="0 0 286.3 233.561">
  <g id="그룹_124" data-name="그룹 124" transform="translate(0.049 -16.439)">
    <path id="패스_13" data-name="패스 13" d="M15,0H271c8.284,0,15,6.993,15,15.619V186.381c0,8.626-6.716,15.619-15,15.619H15c-8.284,0-15-6.993-15-15.619V15.619C0,6.993,6.716,0,15,0Z" transform="translate(0.251 48)" fill="#003d31"/>
    <path id="패스_11" data-name="패스 11" d="M28.595-.052h108.66c15.792,0,19.9,9.042,28.595,24.695l36.646,56.8c0,13.639-49.448,24.695-65.241,24.695H28.595C12.8,106.136,0,95.08,0,81.441v-56.8C0,19.46-.639,8.321,2.677,4.153,7.674-2.132,18.8-.052,28.595-.052Z" transform="translate(0 16.821)" fill="#003d31"/>
  </g>
</svg>
