<svg xmlns="http://www.w3.org/2000/svg" width="39.654" height="39.654" viewBox="0 0 39.654 39.654">
  <g id="icon" transform="translate(32.302 38.592)">
    <path id="제외_2" data-name="제외 2" d="M-13396.427-10805.438a19.7,19.7,0,0,1-14.021-5.808,19.7,19.7,0,0,1-5.808-14.021,19.692,19.692,0,0,1,5.808-14.019,19.706,19.706,0,0,1,14.021-5.807,19.7,19.7,0,0,1,14.019,5.807,19.7,19.7,0,0,1,5.807,14.019,19.706,19.706,0,0,1-5.807,14.021A19.692,19.692,0,0,1-13396.427-10805.438Zm.03-12.769a3.385,3.385,0,0,0-3.381,3.381,3.385,3.385,0,0,0,3.381,3.381,3.384,3.384,0,0,0,3.38-3.381A3.384,3.384,0,0,0-13396.4-10818.207Zm0-8.556a3.385,3.385,0,0,0-3.381,3.381,3.385,3.385,0,0,0,3.381,3.381,3.384,3.384,0,0,0,3.38-3.381A3.384,3.384,0,0,0-13396.4-10826.763Zm8.556-8.556a3.385,3.385,0,0,0-3.381,3.381,3.385,3.385,0,0,0,3.381,3.381,3.384,3.384,0,0,0,3.38-3.381A3.384,3.384,0,0,0-13387.841-10835.318Zm-8.556,0a3.385,3.385,0,0,0-3.381,3.381,3.385,3.385,0,0,0,3.381,3.381,3.384,3.384,0,0,0,3.38-3.381A3.384,3.384,0,0,0-13396.4-10835.318Zm-8.556,0a3.385,3.385,0,0,0-3.381,3.381,3.385,3.385,0,0,0,3.381,3.381,3.384,3.384,0,0,0,3.38-3.381A3.384,3.384,0,0,0-13404.952-10835.318Z" transform="translate(13383.954 10806.5)" fill="#00130f"/>
  </g>
</svg>
