<svg xmlns="http://www.w3.org/2000/svg" width="42.208" height="41.153" viewBox="0 0 42.208 41.153">
  <path id="github_g" d="M14.118,41.137c0,.17-.2.306-.443.306-.281.026-.477-.111-.477-.306,0-.17.2-.306.443-.306C13.9,40.8,14.118,40.941,14.118,41.137Zm-2.647-.383c-.06.17.111.366.366.417a.4.4,0,0,0,.528-.17c.051-.17-.111-.366-.366-.443a.437.437,0,0,0-.528.2Zm3.761-.145c-.247.06-.417.221-.391.417.026.17.247.281.5.221s.417-.221.391-.391S15.479,40.584,15.232,40.609ZM20.832,8A20.405,20.405,0,0,0,0,28.764,21.335,21.335,0,0,0,14.424,49.119c1.089.2,1.472-.477,1.472-1.03,0-.528-.026-3.438-.026-5.225,0,0-5.957,1.276-7.208-2.536,0,0-.97-2.476-2.366-3.115,0,0-1.949-1.336.136-1.31a4.492,4.492,0,0,1,3.285,2.2c1.864,3.285,4.987,2.34,6.2,1.779a4.73,4.73,0,0,1,1.362-2.868c-4.757-.528-9.556-1.217-9.556-9.4a6.449,6.449,0,0,1,2.008-5.012,8.04,8.04,0,0,1,.221-5.778c1.779-.553,5.872,2.3,5.872,2.3a20.1,20.1,0,0,1,10.688,0s4.093-2.859,5.872-2.3a8.036,8.036,0,0,1,.221,5.778,6.615,6.615,0,0,1,2.2,5.012c0,8.212-5.012,8.867-9.769,9.4a5.032,5.032,0,0,1,1.447,3.948c0,2.868-.026,6.416-.026,7.114,0,.553.391,1.225,1.472,1.03A21.138,21.138,0,0,0,42.208,28.764C42.208,16.961,32.635,8,20.832,8ZM8.271,37.35c-.111.085-.085.281.06.443.136.136.332.2.443.085.111-.085.085-.281-.06-.443C8.578,37.3,8.382,37.239,8.271,37.35Zm-.919-.689c-.06.111.026.247.2.332a.253.253,0,0,0,.366-.06c.06-.111-.026-.247-.2-.332C7.548,36.55,7.412,36.576,7.352,36.661Zm2.757,3.029c-.136.111-.085.366.111.528.2.2.443.221.553.085.111-.111.06-.366-.111-.528C10.475,39.579,10.22,39.554,10.109,39.69Zm-.97-1.251c-.136.085-.136.306,0,.5s.366.281.477.2a.388.388,0,0,0,0-.528c-.119-.2-.34-.281-.477-.17Z" transform="translate(0 -8)" fill="#00130f"/>
</svg>
