<svg xmlns="http://www.w3.org/2000/svg" width="43.606" height="38.153" viewBox="0 0 43.606 38.153">
  <path id="comment-solid_g" d="M43.577,49.714c0,9.785-9.76,17.714-21.8,17.714A26.075,26.075,0,0,1,12.909,65.9,25.224,25.224,0,0,1,8.285,68.51a17.989,17.989,0,0,1-6.949,1.644,1.366,1.366,0,0,1-.971-2.325h0L.39,67.8c.026-.026.06-.06.111-.119.094-.1.238-.264.417-.485a16.409,16.409,0,0,0,1.294-1.84A12.4,12.4,0,0,0,4.035,60,15.484,15.484,0,0,1-.027,49.714C-.027,39.929,9.733,32,21.775,32S43.577,39.929,43.577,49.714Z" transform="translate(0.03 -32)" fill="#00130f"/>
</svg>
