<svg xmlns="http://www.w3.org/2000/svg" width="34.582" height="33.718" viewBox="0 0 34.582 33.718">
  <path id="github_w" d="M11.567,35.15c0,.139-.16.251-.363.251-.23.021-.39-.091-.39-.251,0-.139.16-.251.363-.251C11.386,34.878,11.567,34.99,11.567,35.15ZM9.4,34.836c-.049.139.091.3.3.342a.327.327,0,0,0,.432-.139c.042-.139-.091-.3-.3-.363a.358.358,0,0,0-.432.16Zm3.082-.119c-.2.049-.342.181-.321.342.021.139.2.23.411.181s.342-.181.321-.321S12.682,34.7,12.48,34.718ZM17.068,8A16.719,16.719,0,0,0,0,25.012,17.48,17.48,0,0,0,11.818,41.69c.892.16,1.206-.39,1.206-.844,0-.432-.021-2.817-.021-4.281,0,0-4.881,1.046-5.905-2.078,0,0-.795-2.029-1.938-2.552,0,0-1.6-1.095.112-1.074a3.68,3.68,0,0,1,2.691,1.8,3.686,3.686,0,0,0,5.083,1.457,3.875,3.875,0,0,1,1.116-2.35c-3.9-.432-7.83-1-7.83-7.7a5.284,5.284,0,0,1,1.645-4.107,6.587,6.587,0,0,1,.181-4.734c1.457-.453,4.811,1.883,4.811,1.883a16.471,16.471,0,0,1,8.757,0s3.354-2.343,4.811-1.883a6.584,6.584,0,0,1,.181,4.734,5.42,5.42,0,0,1,1.8,4.107c0,6.728-4.107,7.265-8,7.7A4.123,4.123,0,0,1,21.7,35c0,2.35-.021,5.257-.021,5.829,0,.453.321,1,1.206.844a17.319,17.319,0,0,0,11.7-16.664C34.582,15.342,26.739,8,17.068,8ZM6.777,32.047c-.091.07-.07.23.049.363.112.112.272.16.363.07.091-.07.07-.23-.049-.363C7.028,32.005,6.868,31.957,6.777,32.047Zm-.753-.565c-.049.091.021.2.16.272a.207.207,0,0,0,.3-.049c.049-.091-.021-.2-.16-.272C6.184,31.392,6.073,31.413,6.024,31.483Zm2.259,2.482c-.112.091-.07.3.091.432.16.16.363.181.453.07.091-.091.049-.3-.091-.432C8.583,33.874,8.374,33.853,8.283,33.965ZM7.488,32.94c-.112.07-.112.251,0,.411s.3.23.39.16a.318.318,0,0,0,0-.432c-.1-.16-.279-.23-.39-.139Z" transform="translate(0 -8)" fill="#f7f7f7"/>
</svg>
