<svg xmlns="http://www.w3.org/2000/svg" width="33.719" height="33.72" viewBox="0 0 33.719 33.72">
  <g id="icon" transform="translate(0 0)">
    <path id="제외_1" data-name="제외 1" d="M16.862,33.72A16.861,16.861,0,0,1,4.938,4.938,16.86,16.86,0,0,1,28.782,28.781,16.743,16.743,0,0,1,16.862,33.72Zm.025-10.858a2.875,2.875,0,1,0,2.877,2.875A2.879,2.879,0,0,0,16.886,22.862Zm0-7.276a2.875,2.875,0,1,0,2.877,2.875A2.879,2.879,0,0,0,16.886,15.586Zm7.275-7.276a2.875,2.875,0,1,0,2.875,2.875A2.878,2.878,0,0,0,24.161,8.311Zm-7.275,0a2.875,2.875,0,1,0,2.877,2.875A2.878,2.878,0,0,0,16.886,8.311Zm-7.277,0a2.875,2.875,0,1,0,2.879,2.875A2.878,2.878,0,0,0,9.609,8.311Z" transform="translate(0 0)" fill="#f7f7f7"/>
  </g>
</svg>
