<svg xmlns="http://www.w3.org/2000/svg" width="38.537" height="33.718" viewBox="0 0 38.537 33.718">
  <path id="comment-solid_w" d="M38.508,47.655c0,8.648-8.625,15.655-19.268,15.655a23.044,23.044,0,0,1-7.835-1.347,22.292,22.292,0,0,1-4.087,2.3,15.9,15.9,0,0,1-6.142,1.453,1.207,1.207,0,0,1-.858-2.055h0l.023-.023c.023-.023.053-.053.1-.105.083-.09.211-.233.369-.429a14.5,14.5,0,0,0,1.144-1.626,10.956,10.956,0,0,0,1.611-4.734,13.684,13.684,0,0,1-3.59-9.092C-.027,39.007,8.6,32,19.24,32S38.508,39.007,38.508,47.655Z" transform="translate(0.03 -32)" fill="#f7f7f7"/>
</svg>
