<svg xmlns="http://www.w3.org/2000/svg" width="33.727" height="33.72" viewBox="0 0 33.727 33.72">
  <path id="instagram_w" d="M16.792,40.04a8.645,8.645,0,1,0,8.645,8.645A8.632,8.632,0,0,0,16.792,40.04Zm0,14.266a5.621,5.621,0,1,1,5.621-5.621,5.631,5.631,0,0,1-5.621,5.621Zm11.016-14.62a2.016,2.016,0,1,1-2.016-2.017A2.012,2.012,0,0,1,27.808,39.686Zm5.726,2.047a9.979,9.979,0,0,0-2.724-7.065,10.045,10.045,0,0,0-7.065-2.724c-2.784-.158-11.128-.158-13.912,0A10.03,10.03,0,0,0,2.767,34.66C.788,36.631.179,39.024.044,41.725c-.158,2.784-.158,11.128,0,13.912A9.979,9.979,0,0,0,2.767,62.7a10.058,10.058,0,0,0,7.065,2.724c2.784.158,11.128.158,13.912,0A9.979,9.979,0,0,0,30.81,62.7a10.045,10.045,0,0,0,2.724-7.065c.158-2.784.158-11.121,0-13.9Zm-3.6,16.892a5.69,5.69,0,0,1-3.205,3.205c-2.22.88-7.487.677-9.94.677s-7.727.2-9.94-.677a5.69,5.69,0,0,1-3.205-3.205c-.88-2.22-.677-7.487-.677-9.94s-.2-7.727.677-9.94A5.69,5.69,0,0,1,6.853,35.54c2.22-.88,7.487-.677,9.94-.677s7.727-.2,9.94.677a5.69,5.69,0,0,1,3.205,3.205c.88,2.22.677,7.487.677,9.94S30.818,56.412,29.937,58.625Z" transform="translate(0.075 -31.825)" fill="#f7f7f7"/>
</svg>
