<svg xmlns="http://www.w3.org/2000/svg" width="39.662" height="39.653" viewBox="0 0 39.662 39.653">
  <path id="instagram_g" d="M19.761,41.485A10.167,10.167,0,1,0,29.927,51.652,10.151,10.151,0,0,0,19.761,41.485Zm0,16.776a6.61,6.61,0,1,1,6.61-6.61,6.622,6.622,0,0,1-6.61,6.61ZM32.714,41.069A2.371,2.371,0,1,1,30.343,38.7,2.366,2.366,0,0,1,32.714,41.069Zm6.734,2.407c-.15-3.177-.876-5.99-3.2-8.309s-5.132-3.044-8.309-3.2c-3.274-.186-13.087-.186-16.36,0-3.168.15-5.981.876-8.309,3.194S.224,40.291.064,43.467c-.186,3.274-.186,13.087,0,16.36.15,3.177.876,5.99,3.2,8.309s5.132,3.044,8.309,3.2c3.274.186,13.087.186,16.36,0,3.177-.15,5.99-.876,8.309-3.2s3.044-5.132,3.2-8.309c.186-3.274.186-13.078,0-16.352ZM35.219,63.34a6.692,6.692,0,0,1-3.769,3.769c-2.61,1.035-8.8.8-11.689.8s-9.087.23-11.689-.8A6.692,6.692,0,0,1,4.3,63.34c-1.035-2.61-.8-8.8-.8-11.689s-.23-9.087.8-11.689a6.692,6.692,0,0,1,3.769-3.769c2.61-1.035,8.8-.8,11.689-.8s9.087-.23,11.689.8a6.692,6.692,0,0,1,3.769,3.769c1.035,2.61.8,8.8.8,11.689S36.254,60.739,35.219,63.34Z" transform="translate(0.075 -31.825)" fill="#00130f"/>
</svg>
