<svg xmlns="http://www.w3.org/2000/svg" width="50" height="50" viewBox="0 0 50 50">
  <g id="그룹_146" data-name="그룹 146" transform="translate(1237 9603)">
    <path id="패스_36" data-name="패스 36" d="M25,21a4.012,4.012,0,0,1,4,4,4.136,4.136,0,0,1-.5,1.9L50,48.1V0H1.1L23,21.5A4.552,4.552,0,0,1,25,21Z" transform="translate(-1237 -9603)" fill="#257af5"/>
    <path id="패스_37" data-name="패스 37" d="M25,29a4.012,4.012,0,0,1-4-4,3.7,3.7,0,0,1,.6-2.1L0,1.6V50H49.2l-22-21.7A3.408,3.408,0,0,1,25,29Z" transform="translate(-1237 -9603)" fill="#257af5"/>
  </g>
</svg>
