<svg width="155" height="20" viewBox="0 0 155 20" fill="none" xmlns="http://www.w3.org/2000/svg">
<path d="M104.784 19.1307H104.684L104.823 18.9816C105.32 18.4849 105.429 17.5211 105.191 15.6533L104.595 12.3348H97.1942L95.3961 15.0671C94.1842 17.0144 93.7868 18.1868 94.0749 19.0015L94.1345 19.1307H94.055H91.4126C92.5053 17.9285 92.9921 17.2926 93.906 15.9811L94.2636 15.4645L104.178 0.77002H105.052L107.804 15.7328L108.012 16.6369C108.3 17.9186 108.489 18.5246 108.797 19.1307H104.784ZM104.476 11.6096L103.085 3.64136L97.7405 11.6096H104.476Z" fill="#3C3C3C"/>
<path d="M81.5183 19.2005C78.3692 19.2005 75.9553 18.2368 74.5148 16.4086C73.2333 14.7792 72.8558 12.5934 73.432 10.2387C74.8526 4.43646 80.0481 0.382812 86.0581 0.382812C88.3231 0.382812 91.6609 1.31674 92.8331 2.64809L91.7801 6.45335C91.6112 4.52588 90.0615 1.07829 85.621 1.07829C82.2435 1.07829 78.1705 3.84034 76.6606 10.0102C76.0248 12.6133 76.3228 14.8687 77.505 16.3689C78.5182 17.6605 80.1176 18.3461 82.1342 18.3461C85.3627 18.3461 89.2072 15.3058 90.9456 12.7524L89.4555 16.7166C88.3429 17.7301 85.3329 19.2005 81.5183 19.2005Z" fill="#3C3C3C"/>
<path d="M43.2725 19.1307C43.2824 19.1207 44.0374 18.3557 44.0374 16.6568V3.24394C44.0374 1.53505 43.2824 0.77002 43.2725 0.77002H49.7693C53.8522 0.77002 61.5907 2.7571 61.5907 10.2683C61.5907 16.3587 56.4747 19.1307 51.7263 19.1307H43.2725ZM49.5607 1.4655C48.2196 1.4655 47.3156 1.58472 46.9182 2.19078C46.6798 2.54846 46.5705 3.10484 46.5705 3.9891V16.2991C46.5705 16.8157 46.66 17.1933 46.8586 17.4814C47.2858 18.1173 48.4083 18.4253 50.2859 18.4253C55.531 18.4253 58.4218 15.544 58.4218 10.308C58.4218 4.69451 55.1932 1.4655 49.5607 1.4655Z" fill="#3C3C3C"/>
<path d="M25.4807 19.1307C25.4807 19.1307 25.729 18.8227 25.9774 18.3458C26.1562 17.998 26.2257 17.4913 26.2257 16.6568V3.24394C26.2257 1.53505 25.4707 0.77002 25.4608 0.77002H38.1167L38.4942 2.91607C37.4015 1.82317 36.9147 1.58472 34.5305 1.58472H30.4775C28.9675 1.58472 28.739 1.72382 28.739 2.67762V9.29461H34.0835C35.7922 9.29461 36.5471 8.79784 36.5571 8.79784V10.5465C36.5471 10.5465 35.7922 10.0497 34.0835 10.0497H28.739V17.074C28.739 17.8887 29.1463 18.2067 30.1199 18.2166C31.0934 18.2266 35.3948 18.0974 35.3948 18.0974C38.3055 18.0974 39.875 16.16 39.875 16.16L38.971 19.1505H25.4807V19.1307Z" fill="#3C3C3C"/>
<path d="M65.465 19.1307C65.4749 19.1207 66.2299 18.3557 66.2299 16.6568V3.24394C66.2299 1.53505 65.4749 0.77002 65.465 0.77002H69.518C69.5081 0.779955 68.7531 1.54498 68.7531 3.24394V16.6468C68.7531 18.3557 69.5081 19.1108 69.518 19.1207L65.465 19.1307Z" fill="#3C3C3C"/>
<path d="M17.0467 19.1307C17.0467 19.1307 17.3547 18.773 17.5236 18.157C17.6428 17.7198 17.7024 17.2131 17.7024 16.6568V3.04523L9.96379 18.5842H9.39755L1.39076 2.82665V16.6568C1.39076 18.3656 2.03647 19.1307 2.0464 19.1307H0C0.00993399 19.1207 0.655643 18.3656 0.655643 16.6568V3.24394C0.655643 1.53505 0.00993399 0.77002 0 0.77002H3.01L10.5896 15.7129L17.9805 0.779955H20.7322C20.7322 0.779955 20.4143 1.1575 20.2455 1.79337C20.1362 2.22059 20.0766 2.70743 20.0766 3.25387V16.6568C20.0766 17.5708 20.2355 18.1769 20.3746 18.5246C20.5137 18.8823 20.7322 19.1307 20.7322 19.1307" fill="#3C3C3C"/>
<path d="M110.724 19.091C110.724 19.091 111.092 18.783 111.509 18.2961C111.827 17.9086 112.095 17.4218 112.393 16.5972L117.31 3.19428C117.926 1.50526 117.201 0.740234 117.201 0.740234H121.86C121.86 0.740234 121.522 0.948878 121.334 1.10784C121.175 1.23701 120.936 1.46552 120.678 1.79339C120.35 2.22061 120.072 2.71738 119.873 3.2539L114.807 17.0741C114.658 17.4715 114.648 17.7199 114.748 17.8788C114.867 18.0676 115.304 18.1968 115.751 18.1968C116.198 18.1868 121.294 18.0775 121.294 18.0775C124.205 18.0775 126.43 16.1997 126.45 16.1799L124.91 19.1307L110.724 19.091Z" fill="#3C3C3C"/>
<path d="M152.815 14.9976C151.682 14.9976 150.758 15.9216 150.758 17.0641C150.758 18.2067 151.682 19.1307 152.815 19.1307C153.947 19.1307 154.871 18.2067 154.871 17.0641C154.871 15.9017 153.967 14.9976 152.815 14.9976ZM152.815 18.8326C151.911 18.8326 151.116 18.008 151.116 17.0641C151.116 16.1203 151.911 15.2956 152.815 15.2956C153.719 15.2956 154.513 16.1203 154.513 17.0641C154.523 18.008 153.728 18.8326 152.815 18.8326Z" fill="#3C3C3C"/>
<path d="M153.977 18.1174C153.818 17.9982 153.579 17.7796 153.411 17.571L153.083 17.104C153.381 16.9947 153.55 16.7762 153.55 16.488C153.55 16.1005 153.192 15.9316 152.824 15.9316H151.881L151.861 15.9416V15.9813L151.871 15.9913C151.96 16.0409 151.97 16.1999 151.97 16.3489V17.7399C151.97 18.028 151.96 18.0777 151.871 18.1174L151.861 18.1373V18.177H152.407L152.427 18.1671V18.1274L152.417 18.1174C152.328 18.0678 152.328 18.0181 152.328 17.7498V17.1835H152.735C152.844 17.3425 152.944 17.4915 153.023 17.6207C153.242 17.9585 153.371 18.1671 153.53 18.1671H154.017L153.977 18.1174ZM152.795 17.0245H152.338V16.0707H152.775C152.973 16.0707 153.212 16.1502 153.212 16.5079C153.212 16.7463 153.142 17.0245 152.795 17.0245Z" fill="#3C3C3C"/>
<path d="M132.996 8.91715C135.281 2.96583 141.281 -0.382405 146.427 0.0348825C151.573 0.45217 154.702 4.5555 152.417 10.5168C150.132 16.4681 144.132 19.8262 138.986 19.399C133.831 18.9718 130.701 14.8784 132.996 8.91715ZM149.139 11.0731C151.483 4.99266 149.814 1.03836 146.03 0.730362C142.771 0.462106 138.43 2.73732 136.265 8.36077C133.92 14.4412 135.569 18.3856 139.394 18.7035C142.642 18.9718 146.973 16.6966 149.139 11.0731Z" fill="#3C3C3C"/>
</svg>
