<?xml version="1.0" encoding="utf-8"?>
<!-- Generator: Adobe Illustrator 26.5.0, SVG Export Plug-In . SVG Version: 6.00 Build 0)  -->
<svg version="1.1" xmlns="http://www.w3.org/2000/svg" xmlns:xlink="http://www.w3.org/1999/xlink" x="0px" y="0px"
	 viewBox="0 0 77 129.5" style="enable-background:new 0 0 77 129.5;" xml:space="preserve">
<style type="text/css">
	.st0{fill:none;stroke:#000000;stroke-linecap:round;stroke-linejoin:round;stroke-miterlimit:10;}
	.st1{fill:none;stroke:#000000;stroke-linecap:round;stroke-miterlimit:10;}
	.st2{fill:#A100FF;stroke:#000000;stroke-linecap:round;stroke-miterlimit:10;}
</style>
<g id="Layer_1">
</g>
<g id="Layer_2">
</g>
<g id="Layer_3">
</g>
<g id="Layer_4">
</g>
<g id="Layer_5">
	<g>
		<path class="st0" d="M28,40c0,0,12.7-6.4,19.1-11.3c0.4-0.3,1-0.1,1.1,0.4c0.6,2.8,2.5,10.3,6.2,15.9c4.6,7-8.9,14.5-8.9,14.5
			S24.5,69.5,28,40z"/>
		<path d="M16.5,64.5c0,0,1.4-31.8,15.5-42.5c17-13,37.9-0.5,32.5,32.5c-4.9,30-6.5,55.9-6.9,63.6c-0.1,1.2,0,2.4,0.1,3.6
			c0.1,1.5-0.3,3.6-5.2,0.8c-7-4-18-11-18-33c0,0,7.6-13.2,2.5-22.2c-0.3-0.5-0.4-1.1-0.2-1.6l1.3-4.5c0,0,13.2-0.5,17.4-13.1
			c0,0,1.4,2.9-1.7-4.3c-3-7.1-3.1-6.3-5.5-15.2c-0.1-0.3-0.4-0.4-0.6-0.3L27.6,41c0,0-1.4,15.6,3.7,17.6l-2.2,3.1
			c-0.4,0.5-1,0.8-1.7,0.8C25,62.3,18.9,62.1,16.5,64.5z"/>
		<path class="st1" d="M25.5,85.5c0,0-2,3-2-2S22.3,71,22.3,71s-2.8-9-5.8,2.7c0,0-5.5,32.3,6.5,26.3s14.5-15.5,14.5-15.5"/>
		<ellipse transform="matrix(0.4559 -0.8901 0.8901 0.4559 -17.214 65.8713)" cx="45.3" cy="47" rx="3.7" ry="2.3"/>
		<ellipse transform="matrix(0.3815 -0.9244 0.9244 0.3815 -17.33 60.1288)" cx="36.3" cy="43" rx="3.7" ry="2.3"/>
		<path class="st2" d="M50.1,44.8c0,0-1.3,0.4-3.1-0.6"/>
		<circle cx="37" cy="53" r="1"/>
		<path class="st2" d="M35.3,37.7c0,0,0.4,1.3,2.2,2.3"/>
	</g>
</g>
</svg>
